<mxfile host="Electron" agent="Mozilla/5.0 (Windows NT 10.0; Win64; x64) AppleWebKit/537.36 (KHTML, like Gecko) draw.io/28.0.6 Chrome/138.0.7204.100 Electron/37.2.3 Safari/537.36" version="28.0.6">
  <diagram id="gKfQR6QMqfabCFEobmAz" name="Page-1">
    <mxGraphModel dx="995" dy="726" grid="1" gridSize="10" guides="1" tooltips="1" connect="1" arrows="1" fold="1" page="1" pageScale="1" pageWidth="1100" pageHeight="850" math="0" shadow="0">
      <root>
        <mxCell id="0" />
        <mxCell id="1" parent="0" />
        <mxCell id="XGa5Y8sCl0DmdLY9kct8-3" value="&lt;b&gt;&lt;font style=&quot;font-size: 14px;&quot;&gt;Pi Pico HW&lt;/font&gt;&lt;/b&gt;" style="rounded=0;whiteSpace=wrap;html=1;fillColor=#CCCCCC;strokeColor=light-dark(#080808, #5c79a3);" parent="1" vertex="1">
          <mxGeometry x="160" y="520" width="640" height="40" as="geometry" />
        </mxCell>
        <mxCell id="XGa5Y8sCl0DmdLY9kct8-5" value="&lt;b&gt;&lt;font style=&quot;font-size: 14px;&quot;&gt;Pi Pico Board Support Package (aka HAL)&lt;/font&gt;&lt;/b&gt;" style="rounded=0;whiteSpace=wrap;html=1;fillColor=#E6E6E6;" parent="1" vertex="1">
          <mxGeometry x="160" y="470" width="640" height="40" as="geometry" />
        </mxCell>
        <mxCell id="CG7hZ_wFSSS8GAl2Qvh1-33" value="&lt;b&gt;&lt;font style=&quot;font-size: 18px;&quot;&gt;RetroComp SW CPU Block Diagram&lt;/font&gt;&lt;/b&gt;" style="text;html=1;align=center;verticalAlign=middle;whiteSpace=wrap;rounded=0;" parent="1" vertex="1">
          <mxGeometry x="320" y="170" width="350" height="30" as="geometry" />
        </mxCell>
        <mxCell id="Itc3ws8kvYK7tVQTwQo3-1" value="&lt;b&gt;&lt;font style=&quot;font-size: 14px;&quot;&gt;System Initialization&lt;/font&gt;&lt;/b&gt;" style="rounded=0;whiteSpace=wrap;html=1;fillColor=#FF9999;" vertex="1" parent="1">
          <mxGeometry x="360" y="400" width="240" height="60" as="geometry" />
        </mxCell>
        <mxCell id="Itc3ws8kvYK7tVQTwQo3-2" value="&lt;b&gt;&lt;font style=&quot;font-size: 14px;&quot;&gt;Module Discovery&lt;/font&gt;&lt;/b&gt;" style="rounded=0;whiteSpace=wrap;html=1;fillColor=#FF9999;" vertex="1" parent="1">
          <mxGeometry x="610" y="400" width="190" height="60" as="geometry" />
        </mxCell>
        <mxCell id="Itc3ws8kvYK7tVQTwQo3-3" value="&lt;b&gt;&lt;font style=&quot;font-size: 14px;&quot;&gt;Boot Monitor&lt;/font&gt;&lt;/b&gt;" style="rounded=0;whiteSpace=wrap;html=1;fillColor=#CC99FF;" vertex="1" parent="1">
          <mxGeometry x="160" y="320" width="640" height="70" as="geometry" />
        </mxCell>
        <mxCell id="Itc3ws8kvYK7tVQTwQo3-4" value="&lt;b&gt;&lt;font style=&quot;font-size: 14px;&quot;&gt;Device Drivers&lt;/font&gt;&lt;/b&gt;" style="rounded=0;whiteSpace=wrap;html=1;fillColor=#FF9999;" vertex="1" parent="1">
          <mxGeometry x="160" y="400" width="190" height="60" as="geometry" />
        </mxCell>
        <mxCell id="Itc3ws8kvYK7tVQTwQo3-5" value="&lt;b&gt;&lt;font style=&quot;font-size: 14px;&quot;&gt;CLI&lt;/font&gt;&lt;/b&gt;" style="rounded=0;whiteSpace=wrap;html=1;fillColor=#99FFFF;" vertex="1" parent="1">
          <mxGeometry x="160" y="240" width="310" height="70" as="geometry" />
        </mxCell>
      </root>
    </mxGraphModel>
  </diagram>
</mxfile>
